HIERARCHY
ROOT Hips
{
	OFFSET 0.00000 0.00000 0.00000
	CHANNELS 6 Xposition Yposition Zposition Zrotation Yrotation Xrotation 
	JOINT RightUpLegDummy
	{
		OFFSET 0 0 0
		CHANNELS 3 Zrotation Yrotation Xrotation
		JOINT RightUpLeg
		{
			OFFSET -3.52197 -3.41223 0.04002
			CHANNELS 3 Zrotation Yrotation Xrotation
			JOINT RightLeg
			{
				OFFSET 0.00006 -17.42390 1.60435
				CHANNELS 3 Zrotation Yrotation Xrotation
				JOINT RightFoot
				{
					OFFSET 0.06153 -16.50078 -1.63901
					CHANNELS 3 Zrotation Yrotation Xrotation
					JOINT RightToes
					{
						OFFSET 0.00298 -1.73825 3.34613
						CHANNELS 3 Zrotation Yrotation Xrotation
						End Site
						{
							OFFSET 0.00480 -0.05416 3.85043
						}
					}
				}
			}
		}
	}
	JOINT SpineDummy
	{
		OFFSET 0 0 0
		CHANNELS 3 Zrotation Yrotation Xrotation
		JOINT Spine
		{
			OFFSET 0.00000 4.68130 0.00000
			CHANNELS 3 Zrotation Yrotation Xrotation
			JOINT Spine1
			{
				OFFSET -0.00000 10.10138 0.05002
				CHANNELS 3 Zrotation Yrotation Xrotation
				JOINT HEadDummy
				{
					OFFSET 0 0 0
					CHANNELS 3 Zrotation Yrotation Xrotation
					JOINT Head
					{
						OFFSET -0.00000 3.43865 0.00438
						CHANNELS 3 Zrotation Yrotation Xrotation
						End Site
						{
							OFFSET -0.11417 5.02924 0.98962
						}
					}
				}
				JOINT LeftShoulder1Dummy
				{
					OFFSET 0 0 0
					CHANNELS 3 Zrotation Yrotation Xrotation
					JOINT LeftShoulder1
					{
						OFFSET 3.53937 -0.14262 -0.08662
						CHANNELS 3 Zrotation Yrotation Xrotation
						JOINT LeftArm
						{
							OFFSET 4.04833 -0.00133 0.12681
							CHANNELS 3 Zrotation Yrotation Xrotation
							JOINT LeftForeArm
							{
								OFFSET 10.33880 -0.01036 -0.55515
								CHANNELS 3 Zrotation Yrotation Xrotation
								JOINT LeftHand
								{
									OFFSET 8.69677 0.07543 0.40060
									CHANNELS 3 Zrotation Yrotation Xrotation
									End Site
									{
										OFFSET 5.28377 -0.21905 0.59205
									}
								}
							}
						}
					}
				}
				JOINT RightShoulderDummy
				{
					OFFSET 0 0 0
					CHANNELS 3 Zrotation Yrotation Xrotation
					JOINT RightShoulder
					{
						OFFSET -3.53937 -0.14262 -0.08660
						CHANNELS 3 Zrotation Yrotation Xrotation
						JOINT RightArm
						{
							OFFSET -4.04833 -0.00133 0.12683
							CHANNELS 3 Zrotation Yrotation Xrotation
							JOINT RightForeArm
							{
								OFFSET -10.37987 -0.01039 -0.55511
								CHANNELS 3 Zrotation Yrotation Xrotation
								JOINT RightHand
								{
									OFFSET -8.67398 0.07538 0.40058
									CHANNELS 3 Zrotation Yrotation Xrotation
									End Site
									{
										OFFSET -5.24810 -0.21916 0.59204
									}
								}
							}
						}
					}
				}
			}
		}
	}
	JOINT LeftUpLegDummy
	{
		OFFSET 0 0 0
		CHANNELS 3 Zrotation Yrotation Xrotation
		JOINT LeftUpLeg
		{
			OFFSET 3.52197 -3.41223 0.04002
			CHANNELS 3 Zrotation Yrotation Xrotation
			JOINT LeftLeg
			{
				OFFSET -0.00012 -17.42399 1.60337
				CHANNELS 3 Zrotation Yrotation Xrotation
				JOINT LeftFoot
				{
					OFFSET -0.09972 -16.50070 -1.63802
					CHANNELS 3 Zrotation Yrotation Xrotation
					JOINT LeftToes
					{
						OFFSET -0.01575 -1.73823 3.34611
						CHANNELS 3 Zrotation Yrotation Xrotation
						End Site
						{
							OFFSET 0.03150 -0.01868 3.85031
						}
					}
				}
			}
		}
	}
}
MOTION
Frames: 11
Frame Time: 0.033333
-9.6696 38.8952 75.1101 179.9950 53.2931 179.8040 0.0000 0.0000 0.0000 6.6343 -7.1451 7.5207 11.5730 30.5982 14.5150 11.8225 0.1093 -12.9095 0.0000 -0.0000 -0.0000 0.0000 0.0000 0.0000 2.9296 3.9190 1.4282 -1.7735 4.2132 0.2942 -0.0000 0.0000 -0.0000 -3.4470 8.7727 -9.2830 -0.0000 0.0000 -0.0000 -34.8717 -2.6423 2.5146 -41.7661 -16.0295 -23.0192 -6.9596 4.9800 54.1236 16.9914 -1.3417 -0.9757 -0.0000 0.0000 -0.0000 35.1017 5.2157 3.5860 41.0720 6.1543 -13.2074 11.4084 4.9361 22.0425 -10.5591 2.5922 -0.7048 0.0000 0.0000 0.0000 -7.1095 2.0545 -14.7984 4.6434 23.1073 14.3802 8.1457 -0.5358 -3.5457 0.0000 0.0000 -0.0000
-9.1369 38.8973 74.8658 -179.7320 54.3355 179.8720 0.0000 0.0000 0.0000 5.2432 -10.9008 6.9261 14.7406 34.9761 18.9131 23.1440 0.2499 -12.8045 0.0000 -0.0000 -0.0000 0.0000 0.0000 0.0000 3.4826 4.2491 1.5550 -2.1895 4.5802 0.0368 -0.0000 0.0000 -0.0000 -3.7167 9.7924 -8.3194 -0.0000 0.0000 -0.0000 -34.5495 -2.6141 2.4831 -42.7661 -15.9655 -21.4892 -7.9915 5.0558 51.4121 17.0796 -1.4587 -0.9971 -0.0000 0.0000 -0.0000 34.9127 5.1915 3.5594 41.0127 6.2646 -13.4136 11.5467 3.2834 23.9975 -10.3773 2.6213 -0.6946 0.0000 0.0000 0.0000 -6.2296 1.5625 -14.3674 5.4803 24.6872 16.0706 6.9933 -0.3673 -4.8536 0.0000 0.0000 -0.0000
-8.6551 38.8339 74.6625 -179.7370 54.8556 179.6260 0.0000 0.0000 0.0000 4.0710 -12.1118 5.4672 16.1044 31.5279 23.5944 28.4183 0.3391 -12.8674 0.0000 -0.0000 -0.0000 0.0000 0.0000 0.0000 3.2476 4.1775 1.8502 -1.8637 4.4369 -0.3257 -0.0000 0.0000 -0.0000 -3.6731 10.9952 -7.1593 -0.0000 0.0000 -0.0000 -34.3036 -2.5812 2.4546 -43.8534 -15.5304 -18.9960 -9.6261 5.1361 48.1477 16.4532 -1.9934 -1.0317 -0.0000 0.0000 -0.0000 34.7593 5.1708 3.5374 40.7648 6.6292 -13.0849 11.6984 2.0241 25.2410 -10.8875 2.2048 -0.6937 0.0000 0.0000 0.0000 -5.7606 1.1965 -14.0767 6.1875 25.2953 17.9043 6.4116 -0.2620 -6.0139 0.0000 0.0000 -0.0000
-8.1746 38.8112 74.4890 -179.7400 54.1727 179.3250 0.0000 0.0000 0.0000 2.6904 -13.9966 4.0047 13.3908 22.3627 26.7559 26.5564 0.5164 -13.7763 0.0000 -0.0000 -0.0000 0.0000 0.0000 0.0000 2.5926 3.4734 2.0452 -1.1140 3.6078 -0.4861 -0.0000 0.0000 -0.0000 -3.5237 11.9047 -6.2933 -0.0000 0.0000 -0.0000 -34.3242 -2.5961 2.4619 -44.5282 -15.4442 -16.3424 -11.1862 5.1834 45.8164 15.4854 -2.7005 -1.0590 -0.0000 0.0000 -0.0000 34.8021 5.1757 3.5432 40.3399 6.8092 -13.0070 11.7723 1.6650 25.1809 -11.6528 1.7217 -0.7000 0.0000 0.0000 0.0000 -5.5672 1.4916 -13.3368 6.0365 24.2220 18.7466 6.3869 -0.2000 -6.9994 0.0000 0.0000 -0.0000
-7.7040 38.9029 74.2999 -179.1480 52.5438 179.5890 0.0000 0.0000 0.0000 1.2094 -16.9896 2.9114 7.5763 11.5617 28.5748 21.7649 0.6077 -14.7807 0.0000 -0.0000 -0.0000 0.0000 0.0000 0.0000 2.4707 2.4559 1.9278 -0.4883 2.4636 -0.3195 -0.0000 0.0000 -0.0000 -3.5838 12.2522 -5.8094 -0.0000 0.0000 -0.0000 -34.6494 -2.6430 2.5010 -44.7905 -16.3465 -14.3132 -12.1219 5.1766 45.6092 14.9009 -3.4614 -1.1105 -0.0000 0.0000 -0.0000 34.8960 5.1845 3.5550 39.8785 6.4300 -13.6600 11.5809 2.1345 24.2158 -11.7951 1.8316 -0.7185 0.0000 0.0000 0.0000 -5.2008 1.8223 -12.1002 5.3621 22.6545 18.2048 6.7533 -0.1852 -7.4463 0.0000 0.0000 -0.0000
-7.2914 39.0400 74.0931 -178.0120 50.8745 -179.5900 0.0000 0.0000 0.0000 0.0558 -18.9077 1.7136 1.3287 2.1309 30.3042 17.7241 0.4801 -14.7591 0.0000 -0.0000 -0.0000 0.0000 0.0000 0.0000 3.0928 1.7040 1.6732 -0.0941 1.5946 -0.0467 -0.0000 0.0000 -0.0000 -3.8189 12.1300 -5.4245 -0.0000 0.0000 -0.0000 -34.9329 -2.6669 2.5285 -45.3167 -18.2378 -13.2962 -12.2504 5.1316 47.1604 15.0192 -4.0948 -1.1972 -0.0000 0.0000 -0.0000 34.8839 5.1788 3.5516 39.4381 5.4838 -14.8006 11.2360 3.0235 22.6693 -11.3780 2.2572 -0.7313 0.0000 0.0000 0.0000 -4.5899 1.6899 -10.9352 4.9490 21.4960 17.2557 7.2909 -0.2014 -7.4758 0.0000 0.0000 -0.0000
-6.9425 39.1349 73.9358 -176.9160 49.5097 -178.8590 0.0000 0.0000 0.0000 -0.5732 -18.5008 0.0528 -4.0364 -4.8760 32.4681 14.4154 0.2856 -14.0108 0.0000 -0.0000 -0.0000 0.0000 0.0000 0.0000 3.6035 1.3289 1.8999 0.5153 1.0883 -0.1643 -0.0000 0.0000 -0.0000 -3.8429 11.8443 -4.9475 -0.0000 0.0000 -0.0000 -34.8107 -2.6592 2.5177 -46.6095 -20.2934 -12.9393 -11.9027 5.1006 48.4136 15.4714 -4.2831 -1.2581 -0.0000 0.0000 -0.0000 34.8957 5.1845 3.5550 38.8868 4.4062 -15.6484 11.0568 3.7217 20.7222 -11.3843 2.2530 -0.7310 0.0000 0.0000 0.0000 -3.9251 1.3898 -10.0787 4.8555 20.5200 16.7856 7.5201 -0.2020 -7.5757 0.0000 0.0000 -0.0000
-6.6056 39.1889 73.8388 -176.0240 48.2205 -178.4540 0.0000 0.0000 0.0000 -0.9181 -16.5057 -1.7245 -7.8789 -9.2950 34.1730 11.5553 0.1499 -13.3206 0.0000 -0.0000 -0.0000 0.0000 0.0000 0.0000 3.6775 1.0201 2.6545 1.3951 0.6454 -0.6583 -0.0000 0.0000 -0.0000 -3.4623 11.6691 -4.4737 -0.0000 0.0000 -0.0000 -34.3900 -2.6596 2.4915 -48.2164 -21.5638 -12.2800 -11.8446 5.1266 47.5268 15.7133 -4.0090 -1.2436 -0.0000 0.0000 -0.0000 35.0495 5.2169 3.5819 38.2320 3.7650 -15.9668 11.0799 3.5344 19.5672 -12.0242 1.8615 -0.7360 0.0000 0.0000 0.0000 -3.2003 1.4183 -9.3290 4.7428 19.2512 16.7647 7.1810 -0.1684 -7.9021 0.0000 0.0000 -0.0000
-6.2365 39.2476 73.7692 -175.1130 46.8217 -178.1180 0.0000 0.0000 0.0000 -1.1730 -13.8812 -3.0958 -9.4256 -11.2847 33.9910 10.0472 0.0800 -12.8012 0.0000 -0.0000 -0.0000 0.0000 0.0000 0.0000 3.6199 0.6097 3.4472 2.3238 0.1039 -1.1131 -0.0000 0.0000 -0.0000 -2.9141 11.6203 -4.1821 -0.0000 0.0000 -0.0000 -34.0567 -2.6893 2.4826 -49.2810 -21.9213 -10.6621 -12.5388 5.1886 45.0291 15.5191 -3.7949 -1.2004 -0.0000 0.0000 -0.0000 35.1830 5.2420 3.6041 37.7669 3.7327 -16.2980 11.0234 2.2983 20.3566 -12.3374 1.6953 -0.7393 0.0000 0.0000 0.0000 -2.2150 1.8934 -8.5292 4.2527 17.5688 16.7048 6.7352 -0.1335 -8.2295 0.0000 0.0000 -0.0000
-5.8423 39.3121 73.7071 -174.2470 45.1841 -177.7850 0.0000 0.0000 0.0000 -1.4252 -10.9173 -3.9686 -8.7922 -11.3892 31.6925 9.9473 0.0387 -12.3170 0.0000 -0.0000 -0.0000 0.0000 0.0000 0.0000 3.5516 0.1381 3.9756 3.1937 -0.5020 -1.2623 -0.0000 0.0000 -0.0000 -2.4694 11.4219 -4.2108 -0.0000 0.0000 -0.0000 -33.9560 -2.7292 2.4922 -49.5852 -21.9990 -8.2796 -13.6371 5.2175 43.0278 14.9894 -4.1419 -1.1999 -0.0000 0.0000 -0.0000 35.1824 5.2403 3.6033 37.6480 3.8991 -17.0017 10.7502 0.7669 22.1741 -11.9205 1.9057 -0.7337 0.0000 0.0000 0.0000 -1.0852 2.5206 -7.7627 3.4041 15.4911 16.5056 6.5778 -0.1131 -8.4840 0.0000 0.0000 -0.0000
-5.4481 39.3594 73.6555 -173.7970 43.1249 -177.7570 0.0000 0.0000 0.0000 -1.9340 -7.7995 -4.5184 -7.1615 -10.4465 28.2537 10.1188 0.0145 -12.0126 0.0000 -0.0000 -0.0000 0.0000 0.0000 0.0000 3.2155 -0.3682 4.4250 4.0651 -1.1489 -1.2430 -0.0000 0.0000 -0.0000 -2.1210 10.8029 -4.6464 -0.0000 0.0000 -0.0000 -33.9556 -2.7608 2.5048 -49.5532 -22.3067 -5.6362 -14.5254 5.0135 42.4567 14.5073 -4.9017 -1.2498 -0.0000 0.0000 -0.0000 35.2088 5.2416 3.6062 37.6969 3.7331 -17.7372 10.4730 -0.1175 22.9599 -11.4332 2.0626 -0.7172 0.0000 0.0000 0.0000 -0.1890 2.9554 -7.0574 2.4639 13.1187 16.2880 6.4945 -0.0938 -8.7602 0.0000 0.0000 -0.0000
